<svg xmlns="http://www.w3.org/2000/svg" version="1.1" xmlnsxlink="http://www.w3.org/1999/xlink" xmlnssvgjs="http://svgjs.com/svgjs" x="0" y="0" viewBox="0 0 64 64" style="enable-background:new 0 0 512 512" xml:space="preserve"><g><path d="M64 32a32 32 0 1 0-32 32 32.042 32.042 0 0 0 32-32ZM47.533 50.395a47.723 47.723 0 0 0 3.452-17.407h10.99a29.888 29.888 0 0 1-8.393 19.818 45.741 45.741 0 0 0-6.05-2.411Zm-37.115 2.41a29.888 29.888 0 0 1-8.393-19.817h10.99a47.723 47.723 0 0 0 3.452 17.407 45.741 45.741 0 0 0-6.05 2.41Zm0-41.61a45.741 45.741 0 0 0 6.05 2.41 47.71 47.71 0 0 0-3.452 17.383H2.026a29.888 29.888 0 0 1 8.392-19.794Zm43.164 0a29.888 29.888 0 0 1 8.392 19.793h-10.99a47.71 47.71 0 0 0-3.452-17.383 45.741 45.741 0 0 0 6.05-2.41Zm-4.596 19.793H33V15.972a51.347 51.347 0 0 0 12.66-1.806 46.163 46.163 0 0 1 3.326 16.822ZM33 13.972V2.056c4.706.485 8.901 4.363 11.815 10.265A49.387 49.387 0 0 1 33 13.972ZM31 2.056v11.916a49.387 49.387 0 0 1-11.815-1.651C22.099 6.419 26.294 2.541 31 2.056Zm0 13.916v15.016H15.014a46.163 46.163 0 0 1 3.326-16.822A51.347 51.347 0 0 0 31 15.972ZM15.014 32.988H31v15.04a51.347 51.347 0 0 0-12.66 1.806 46.174 46.174 0 0 1-3.326-16.846ZM31 50.028v11.916c-4.706-.485-8.901-4.363-11.815-10.265A49.387 49.387 0 0 1 31 50.028Zm2 11.916V50.028a49.387 49.387 0 0 1 11.815 1.651C41.901 57.581 37.706 61.46 33 61.944Zm0-13.916v-15.04h15.986a46.174 46.174 0 0 1-3.326 16.846A51.347 51.347 0 0 0 33 48.028ZM52.048 9.705a44.026 44.026 0 0 1-5.339 2.066 25.173 25.173 0 0 0-6.486-8.616 29.98 29.98 0 0 1 11.825 6.55Zm-34.757 2.066a44.026 44.026 0 0 1-5.34-2.066 29.98 29.98 0 0 1 11.826-6.55 25.173 25.173 0 0 0-6.486 8.616Zm-5.34 42.524a44.026 44.026 0 0 1 5.34-2.066 25.173 25.173 0 0 0 6.486 8.616 29.98 29.98 0 0 1-11.825-6.55Zm34.758-2.066a44.026 44.026 0 0 1 5.34 2.066 29.98 29.98 0 0 1-11.826 6.55 25.173 25.173 0 0 0 6.486-8.616Z" fill="currentColor" data-original="#000000"/></g></svg>