<svg xmlns="http://www.w3.org/2000/svg" width="1em" height="1em" viewBox="0 0 24 24"><path d="M20.232 5.352c-0.024-0.528-0.456-0.912-0.936-0.912h-2.736c-0.12-2.448-2.112-4.392-4.56-4.392s-4.464 1.944-4.56 4.392h-2.712c-0.528 0-0.936 0.432-0.936 0.936l-0.648 16.464c-0.024 0.552 0.168 1.104 0.552 1.512s0.888 0.624 1.464 0.624h13.68c0.552 0 1.056-0.216 1.464-0.624 0.36-0.408 0.552-0.936 0.552-1.488l-0.624-16.512zM12 1.224c1.8 0 3.288 1.416 3.408 3.216l-6.816-0.024c0.12-1.776 1.608-3.192 3.408-3.192zM7.44 5.616v1.968c0 0.336 0.264 0.6 0.6 0.6s0.6-0.264 0.6-0.6v-1.968h6.792v1.968c0 0.336 0.264 0.6 0.6 0.6s0.6-0.264 0.6-0.6v-1.968h2.472l0.624 16.224c-0.024 0.24-0.12 0.48-0.288 0.648s-0.384 0.264-0.6 0.264h-13.68c-0.24 0-0.456-0.096-0.624-0.264s-0.24-0.384-0.216-0.624l0.624-16.248h2.496z"></path></svg>