<svg xmlns="http://www.w3.org/2000/svg" width="1em" height="1em" viewBox="0 0 24 24"><path d="M23.779 9.632l-1.915-1.75v-5.347c0-0.331-0.346-0.602-0.677-0.602l-4.349-0.046c-0.331 0-0.602 0.269-0.602 0.602v1.039l-3.857-3.122c-0.221-0.18-0.54-0.18-0.758 0l-11.398 9.226c-0.257 0.209-0.298 0.59-0.091 0.85 0.115 0.142 0.286 0.223 0.473 0.223 0.139 0 0.274-0.048 0.377-0.134l1.188-0.96v13.517c0 0.331 0.271 0.602 0.605 0.602h6.47c0.357 0 0.646-0.289 0.646-0.646v-9.122h4.219v9.122c0 0.357 0.289 0.646 0.646 0.646h6.47c0.334 0 0.605-0.271 0.605-0.602v-13.517l1.188 0.96c0.125 0.101 0.283 0.149 0.444 0.132 0.149-0.017 0.283-0.086 0.384-0.199l0.022-0.022c0.206-0.259 0.166-0.638-0.089-0.85zM15.317 22.522v-9.768h-6.634v9.768h-5.306v-13.886l8.623-6.969 5.443 4.399v-2.969h3.18v6.586l0.007 12.84h-5.314z"></path></svg>