<svg xmlns="http://www.w3.org/2000/svg" width="1em" height="1em" viewBox="0 0 24 24"><path d="M3.36 8.688c-1.824 0-3.312 1.488-3.312 3.312s1.488 3.312 3.336 3.312c1.848 0 3.336-1.488 3.336-3.312 0-1.8-1.536-3.312-3.36-3.312zM5.544 12c0 1.2-0.984 2.184-2.184 2.184s-2.184-0.984-2.184-2.184 0.984-2.184 2.184-2.184 2.184 0.984 2.184 2.184zM20.64 8.688c-1.824 0-3.312 1.488-3.312 3.312 0 1.8 1.512 3.312 3.312 3.312s3.336-1.512 3.336-3.312c0-1.824-1.488-3.312-3.336-3.312zM22.824 12c0 1.2-0.984 2.184-2.184 2.184s-2.184-0.984-2.184-2.184 0.984-2.184 2.184-2.184c1.2 0 2.184 0.984 2.184 2.184zM12 8.688c-1.824 0-3.312 1.488-3.312 3.312 0 1.8 1.512 3.312 3.312 3.312s3.312-1.512 3.312-3.312c0-1.824-1.488-3.312-3.312-3.312zM12 14.184c-1.2 0-2.184-0.984-2.184-2.184s0.984-2.184 2.184-2.184 2.184 0.984 2.184 2.184-0.984 2.184-2.184 2.184z"></path></svg>