<svg xmlns="http://www.w3.org/2000/svg" width="20.005" height="20.005" viewBox="0 0 20.005 20.005">
  <g id="password_viewed" data-name="password viewed" transform="translate(0 0)">
    <path id="Path_3312" data-name="Path 3312" d="M12,16a4,4,0,1,1,4-4A4,4,0,0,1,12,16Z" transform="translate(-1.995 -1.995)" fill="#b2b1ff"/>
    <path id="Path_3313" data-name="Path 3313" d="M21.919,11.6C19.9,6.914,16.1,4,12,4S4.1,6.914,2.081,11.6a1,1,0,0,0,0,.791C4.1,17.086,7.9,20,12,20s7.9-2.914,9.919-7.6A1,1,0,0,0,21.919,11.6ZM12,16a4,4,0,1,1,4-4A4,4,0,0,1,12,16Z" transform="translate(-1.995 -1.995)" fill="#d8d8ff"/>
    <path id="Path_3314" data-name="Path 3314" d="M21,22a1,1,0,0,1-.707-.293l-18-18A1,1,0,0,1,3.7,2.283l.01.01,18,18A1,1,0,0,1,21,22Z" transform="translate(-1.995 -1.995)" fill="#6563ff"/>
  </g>
</svg>
