<svg xmlns="http://www.w3.org/2000/svg" version="1.1" xmlnsxlink="http://www.w3.org/1999/xlink" xmlnssvgjs="http://svgjs.com/svgjs" x="0" y="0" viewBox="0 0 24 24" style="enable-background:new 0 0 512 512" xml:space="preserve"><g><clipPath id="a"><path d="M0 0h24v24H0z" fill="#000000" data-original="#000000"/></clipPath><g fill="#000" clip-path="url(#a)"><path d="m21.65 7.65-2.79-2.79a.501.501 0 0 0-.86.35V7H4c-.55 0-1 .45-1 1s.45 1 1 1h14v1.79c0 .45.54.67.85.35l2.79-2.79c.2-.19.2-.51.01-.7zM2.35 16.35l2.79 2.79c.32.32.86.1.86-.35V17h14c.55 0 1-.45 1-1s-.45-1-1-1H6v-1.79c0-.45-.54-.67-.85-.35l-2.79 2.79c-.2.19-.2.51-.01.7z" fill="#000000" data-original="#000000"/></g></g></svg>