<svg xmlns="http://www.w3.org/2000/svg" width="1em" height="1em" viewBox="0 0 24 24"><path d="M22.673 20.61h-0.145v-9.837c0.924-0.647 1.472-1.691 1.472-2.821 0-0.103-0.027-0.205-0.078-0.293l-2.732-4.782c-0.236-0.412-0.677-0.669-1.153-0.669h-16.075c-0.475 0-0.917 0.256-1.152 0.669l-2.732 4.782c-0.051 0.089-0.078 0.191-0.078 0.293 0 1.13 0.548 2.174 1.472 2.821v9.837h-0.145c-0.326 0-0.591 0.265-0.591 0.591s0.265 0.591 0.591 0.591h21.346c0.326 0 0.591-0.265 0.591-0.591s-0.265-0.591-0.591-0.591zM19.506 12.959v7.651h-3.234v-7.651h3.234zM1.61 7.361l2.227-3.897c0.026-0.045 0.074-0.073 0.126-0.073h16.075c0.052 0 0.1 0.028 0.126 0.073l2.227 3.897h-20.78zM18.375 8.543h4.365c-0.263 0.97-1.156 1.67-2.182 1.67s-1.919-0.7-2.182-1.67zM20.097 11.777h-4.416c-0.326 0-0.591 0.265-0.591 0.591v8.242h-12.435v-9.307c0.258 0.061 0.522 0.092 0.789 0.092 1.158 0 2.216-0.571 2.852-1.515 0.637 0.944 1.695 1.515 2.852 1.515s2.216-0.571 2.852-1.515c0.637 0.944 1.695 1.515 2.852 1.515s2.215-0.571 2.852-1.515c0.637 0.944 1.695 1.515 2.852 1.515 0.267 0 0.531-0.031 0.789-0.092v9.307h-0.658v-8.242c0-0.326-0.265-0.591-0.591-0.591zM9.148 10.213c-1.026 0-1.919-0.701-2.182-1.67h4.364c-0.263 0.969-1.156 1.67-2.182 1.67zM14.852 10.213c-1.027 0-1.919-0.7-2.182-1.67h4.364c-0.263 0.97-1.155 1.67-2.182 1.67zM3.443 10.213c-1.027 0-1.919-0.7-2.183-1.67h4.365c-0.263 0.969-1.156 1.67-2.182 1.67z"></path><path d="M11.84 12.626h-7.587c-0.313 0-0.568 0.255-0.568 0.568v5.339c0 0.313 0.255 0.568 0.568 0.568h7.587c0.313 0 0.569-0.255 0.569-0.568v-5.339c0-0.313-0.255-0.568-0.569-0.568zM11.272 13.763v4.202h-6.45v-4.202h6.45z"></path></svg>