<svg width="30" height="30" viewBox="0 0 30 30" fill="none" xmlns="http://www.w3.org/2000/svg">
<path d="M21.7443 18.1687C21.3793 17.9668 19.5611 17.0078 19.2229 16.878C18.8847 16.741 18.6369 16.6761 18.3925 17.0799C18.1447 17.4801 17.4415 18.3707 17.2206 18.6411C17.0063 18.9079 16.7886 18.9403 16.4236 18.742C14.2538 17.5738 12.8307 16.658 11.4009 14.0152C11.0226 13.3121 11.7793 13.3626 12.4858 11.8447C12.6064 11.5778 12.5461 11.3507 12.4524 11.1488C12.3586 10.9469 11.6219 8.99269 11.3139 8.19587C11.0159 7.42068 10.7078 7.52884 10.4835 7.51442C10.2692 7.5 10.0247 7.5 9.77695 7.5C9.52916 7.5 9.1307 7.60096 8.7925 7.99396C8.45431 8.39417 7.5 9.35684 7.5 11.311C7.5 13.2652 8.82264 15.1581 9.00345 15.4249C9.19097 15.6917 11.6052 19.7011 15.3119 21.4281C17.6558 22.517 18.5733 22.6107 19.7453 22.4233C20.4585 22.3079 21.9285 21.4642 22.2332 20.5304C22.5379 19.6001 22.5379 18.8033 22.4475 18.6375C22.3571 18.4608 22.1093 18.3598 21.7443 18.1687Z" fill="white"/>
<path d="M28.8347 9.1875C28.078 7.38951 26.9932 5.77567 25.6104 4.38951C24.2276 3.0067 22.6137 1.91853 20.8124 1.16518C18.9709 0.391741 17.0156 0 15 0H14.933C12.904 0.0100446 10.9387 0.41183 9.09048 1.20201C7.3059 1.9654 5.70548 3.05022 4.33607 4.43304C2.96667 5.81585 1.89191 7.42299 1.14861 9.21429C0.378534 11.0692 -0.00985457 13.0413 0.000189951 15.0703C0.0102345 17.394 0.566031 19.7009 1.60731 21.7634V26.8527C1.60731 27.7031 2.29704 28.3929 3.14747 28.3929H8.24004C10.3025 29.4342 12.6094 29.99 14.933 30H15.0034C17.0089 30 18.9542 29.6116 20.7856 28.8516C22.5769 28.1049 24.1874 27.0335 25.5668 25.6641C26.9496 24.2946 28.0378 22.6942 28.7978 20.9096C29.588 19.0614 29.9898 17.096 29.9998 15.067C30.0099 13.0279 29.6148 11.0491 28.8347 9.1875ZM23.7756 23.8527C21.4285 26.1763 18.3147 27.4554 15 27.4554H14.9431C12.9241 27.4453 10.9186 26.9431 9.1474 25.9989L8.86615 25.8482H4.15192V21.1339L4.00126 20.8527C3.05707 19.0815 2.55485 17.0759 2.5448 15.0569C2.53141 11.7188 3.80706 8.58482 6.14743 6.22433C8.48446 3.86384 11.6083 2.55804 14.9464 2.54464H15.0034C16.6774 2.54464 18.3013 2.86942 19.8314 3.51228C21.3247 4.13839 22.664 5.03906 23.8157 6.19085C24.9642 7.33929 25.8682 8.68192 26.4943 10.1752C27.1438 11.7221 27.4686 13.3627 27.4619 15.0569C27.4418 18.3917 26.1327 21.5156 23.7756 23.8527Z" fill="white"/>
</svg>
